<?xml version="1.0" encoding="UTF-8"?>
<svg xmlns="http://www.w3.org/2000/svg" xmlns:cc="http://creativecommons.org/ns#" xmlns:dc="http://purl.org/dc/elements/1.1/" xmlns:rdf="http://www.w3.org/1999/02/22-rdf-syntax-ns#" width="84.584mm" height="19.378mm" version="1.1" viewBox="0 0 84.584 19.378">
  <metadata></metadata>
  <g transform="translate(-35.855 -197.74)">
    <path transform="matrix(.26458 0 0 .26458 35.855 197.74)" d="m289.65 0a6.5574 6.593 0 0 0-6.5586 6.5938 6.5574 6.593 0 0 0 4.2031 6.1445l-1.8184 12.637a19.815 13.432 28.217 0 0-3.1934-0.2207 19.815 13.432 28.217 0 0-11.518 5.791 19.815 13.432 28.217 0 0 5.2871 16.957h-0.01953c-8.4838 0.97682-12.602 4.6875-12.602 4.6875l0.51758 0.54297s4.8374-2.3751 8.707-2.2168c3.8696 0.15836 8.1194 0.22201 10.213 1.6602 2.0935 1.4382 3.174 3.3616 3.6465 5.6914 0.47245 2.3299 2.2941 8.8884 2.7891 10.449 0.49493 1.5607 1.4629 4.5234 1.4629 4.5234l0.38086-0.066406s0.9116-6.7136 0.7207-10.232c-0.19087-3.5187-0.40234-7.7617-0.40234-7.7617l-0.02344-0.033204a19.815 13.432 28.217 0 0 14.312-5.5957 19.815 13.432 28.217 0 0-3.5606-15.184l7.6992-8.4766a6.5574 6.593 0 0 0 0.55859 0.29102 6.5574 6.593 0 0 0 8.6621-3.3281 6.5574 6.593 0 0 0-3.3105-8.709 6.5574 6.593 0 0 0-2.3516-0.56641 6.5574 6.593 0 0 0-6.3105 3.8945 6.5574 6.593 0 0 0 0.60547 6.4473l-7.6074 8.373a19.815 13.432 28.217 0 0-5.627-3.9316 19.815 13.432 28.217 0 0-6.1836-2.4023l1.8418-12.795a6.5574 6.593 0 0 0 6.0352-6.5703 6.5574 6.593 0 0 0-6.5586-6.5918l0.00195-0.0019531zm0.58594 4.0664a3.295 3.3129 0 0 1 3.2949 3.3145 3.295 3.3129 0 0 1-3.2949 3.3125 3.295 3.3129 0 0 1-3.2949-3.3125 3.295 3.3129 0 0 1 3.2949-3.3145zm0 2.0684a1.8269 1.8369 0 0 0-1.8262 1.8359 1.8269 1.8369 0 0 0 1.8262 1.8379 1.8269 1.8369 0 0 0 1.8281-1.8379 1.8269 1.8369 0 0 0-1.8281-1.8359zm22.828 11.307a3.295 3.3129 0 0 1 0.32813 0 3.295 3.3129 0 0 1 1.1816 0.28516 3.295 3.3129 0 0 1 1.6641 4.375 3.295 3.3129 0 0 1-4.3535 1.6738 3.295 3.3129 0 0 1-1.6621-4.377 3.295 3.3129 0 0 1 2.8418-1.957zm-0.05078 1.543a1.8269 1.8369 0 0 0-0.1289 0.001953 1.8269 1.8369 0 0 0-1.5762 1.084 1.8269 1.8369 0 0 0 0.92188 2.4277 1.8269 1.8369 0 0 0 2.4141-0.92774 1.8269 1.8369 0 0 0-0.92187-2.4277 1.8269 1.8369 0 0 0-0.70899-0.1582zm-218.82 2.9707v30.387l2.5293 0.89453 3.8438-0.21289 0.84179-17.152 10.428-1.1914c0.14042 2.8657 0.21093 5.2639 0.21094 7.1934l-0.05274 11.15c0.94795 0.056692 1.7724 0.014905 2.4746-0.12695l0.1582 0.12695 1.3164 0.042968c1.5097 0.056744 2.7043-0.22734 3.582-0.85156l0.47461-16.428-0.31641-0.042968c0-1.7308-0.52679-3.377-1.5801-4.9375-1.2288-1.8443-2.8268-2.7656-4.793-2.7656h-5.2656c-1.0884 0-2.2654 0.16928-3.5293 0.50976-1.4044 0.39723-2.3875 0.89438-2.9492 1.4902v-7.5332l-0.52539-0.55273h-6.8477zm152.5 0.20312c-0.91283-0.028397-2.2993 0.15548-4.1602 0.55274l-0.52735 3.873-0.26367 0.21289c-2.1066-0.11351-3.4931 0.028553-4.1602 0.42578l-1 4.043c1.2288 0.51084 2.2119 0.75113 2.9492 0.72266l1.2637-0.042969v17.238c0 3.3481 3.4408 5.0215 10.322 5.0215 1.4746 0 2.7554-0.83571 3.8438-2.5098 0.91283-1.4187 1.3691-2.7807 1.3691-4.0859l-0.52539-1.1914h-4.8984l-0.68554 0.38281v1.4473l-0.41992 0.4668h-1.8965v-15.533l0.47461-0.25586h3.791c0.35109-2.0714 0.52734-3.164 0.52734-3.2773l-0.68555-1.7871h-3.3164l-0.73829-0.38281v-5.2793l-1.2637-0.041016zm-112.48 1.9941-0.8418 0.25391-0.3164 0.55469c-3.546-0.085115-6.3014 1.6593-8.2676 5.2344-1.5448 2.7806-2.3184 5.7888-2.3184 9.0234 0 3.3481 0.89497 6.4254 2.6856 9.2344 2.2119 3.4616 5.1788 5.1934 8.9004 5.1934h4.582c4.5993 0 8.0578-1.8864 10.375-5.6602 1.8257-2.9509 2.7383-6.4835 2.7383-10.598 0-4.1426-1.6666-7.4057-5.002-9.7891-3.1598-2.2983-7.339-3.4473-12.535-3.4473zm-130.16 0.60742c-0.63989 0-1.1838 0.1115-1.6289 0.33398l-0.082031 0.375-0.83594 0.16797-1.502 30.172 8.9297 0.33398-0.5-5.4258 0.45898-0.75c3.1716-0.27822 5.3564-0.55774 6.5527-0.83594 2.7543-0.66772 4.4934-1.7799 5.2168-3.3379 0.11128-0.25041 0.45872-1.2096 1.043-2.8789 0.61207-1.6693 0.91797-2.5475 0.91797-2.6309v-5.0078c0-3.422-1.6561-6.1052-4.9668-8.0527-2.7821-1.6415-6.0092-2.4629-9.6816-2.4629h-3.9219zm76.982 0.72266c-3.4758 0-6.3566 1.5605-8.6387 4.6816-1.9661 2.6955-2.9492 5.5471-2.9492 8.5547 0 3.2062 0.65017 6.1998 1.9492 8.9805 1.7555 3.7169 4.2661 5.5742 7.5312 5.5742h5.5293c1.299 0 2.7913-0.82309 4.4766-2.4688 1.6853-1.6173 2.5273-2.9648 2.5273-4.043l-1-3.1055-5.002 0.4668-0.73828 0.42578v2l-0.42188 0.51172h-7.0566v-15.195l0.94727-0.25391 0.1582 0.12695c2.3874-0.454 3.723-0.68164 4.0039-0.68164h2.8965l1.6855 2.8105 0.68359-0.21289 0.1582 0.21289 3.8438-0.9375 0.1582-0.85156c0-1.3052-0.89497-2.7237-2.6855-4.2559-1.7906-1.5605-3.4924-2.3398-5.1074-2.3398h-2.9492zm116.33 0.052734c-3.0194 0-5.7219 0.28408-8.1094 0.85156-3.546 0.8512-5.3203 2.1841-5.3203 4 0 1.8443 0.29963 3.3192 0.89648 4.4258h1.2637l5.2656-0.67969v-2.3828l3.3711-0.63867h2.4219l0.47461 1.6602v3.957c-4.5642 0.6526-7.7955 1.4047-9.6914 2.2559-3.2301 1.4471-4.8438 3.6322-4.8438 6.5547 0 2.809 1.0888 4.7373 3.2656 5.7871 1.6501 0.79446 4.3527 1.1934 8.1094 1.1934 1.7204 0 3.1245-0.14204 4.2129-0.42578v1.4473l0.47461 0.29688c3.546-0.28374 5.3536-0.42578 5.4238-0.42578l1 0.042969 0.58008-0.29883c0.28088-9.8173 0.42188-14.754 0.42187-14.811 0-3.1495-0.59729-5.8736-1.791-8.1719-1.615-3.0927-4.0904-4.6387-7.4258-4.6387zm-164.15 0.58008c-2.1768 0-4.1253 0.86491-5.8457 2.5957-1.6853 1.7024-2.5273 3.4488-2.5273 5.2363v3.6602c0 2.2132 2.8788 4.7242 8.6367 7.5332l0.94922-0.38281 2.0527 1.0215v2.8926l-0.73633 0.46875c-2.5279-0.25537-4.4236-0.38281-5.6875-0.38281l-0.63281-0.38281v-4.2559h-5.0566l-0.36719 0.55273c1.4044 6.1004 3.633 9.1504 6.6875 9.1504 3.4056 0 6.302-0.52439 8.6895-1.5742 3.0194-1.3336 4.5293-3.2346 4.5293-5.7031 0-2.355-0.7011-4.2142-2.1055-5.5762-0.91284-0.8796-2.5814-1.8447-5.0039-2.8945-2.7034-1.1633-4.6872-2.1975-5.9512-3.1055v-0.5957c0-0.6526 0.22913-1.5049 0.68555-2.5547h4.9492v2.5957l-0.94726 0.55469 0.1582 0.72266 5.4766 0.55274 0.8418 0.51172 0.42188-0.12891c0.10532-0.99308 0.1582-1.6722 0.1582-2.041 0-1.9294-0.50917-3.7176-1.5273-5.3633-1.2639-2.0713-2.9501-3.1074-5.0566-3.1074h-2.791zm200.2 0c-1.4044 0.36896-2.5813 0.54019-3.5293 0.51172l-2.2637-0.042969c-0.70218 0.99308-1.0527 2.9214-1.0527 5.7871 0 0.99308 0.05093 2.4972 0.15625 4.5117 0.14042 1.9862 0.21094 3.4757 0.21094 4.4688 0 2.9792-0.31531 4.853-0.94727 5.6191h-8.7949c-0.31597-0.53911-0.58034-3.7312-0.79102-9.5762l-0.31445-10.811-4.0039 0.33984-0.20898-0.12695-1.7383 0.55273-0.42188 1.4902v20.002c0.77241 0.14188 1.5264 0.63903 2.2637 1.4902 0.94796 1.0498 1.7568 1.76 2.4238 2.1289 1.2991 0.70934 3.089 1.0645 5.3711 1.0645 2.6683 0 5.7762-1.0215 9.3223-3.0645l0.47266 2.6797h0.36914c0.4213 0 2.0369-0.45336 4.8457-1.3613l0.52735-0.80859c0-3.9723-0.12337-8.4973-0.36914-13.576-0.35111-7.0083-0.86027-10.769-1.5274-11.279zm-184.5 0.68164-5.5293 1.1055 11.008 19.791-1.1074 2.5547h-1.5801c-0.59686-1.2768-1.0355-2.2419-1.3164-2.8945h-4.0547l-1 2.3828c0 2.7239 0.77159 4.909 2.3164 6.5547l1.2109 0.29688h5.8984c3.9323 0 7.426-4.9219 10.48-14.768 1.0533-3.5467 1.8268-6.1998 2.3184-7.959 0.49153-1.2768 0.87733-2.2273 1.1582-2.8516 0.52664-1.3336 0.78906-2.2422 0.78906-2.7246l-0.1582-0.93555-6.2129 0.68164-4.8984 14.342c-0.45642-0.70934-1.651-2.3681-3.582-4.9785-1.6501-2.1848-2.7194-3.8873-3.2109-5.1074-0.35109-0.93634-0.7036-1.8723-1.0547-2.8086-0.42131-1.135-0.91286-2.0291-1.4746-2.6816zm111.05 0.099609-5.2129 1.3203c-0.35109 9.9591-0.52734 14.981-0.52734 15.066 0 1.3903 0.07049 3.0073 0.21093 4.8516 0.21066 2.7522 0.49071 4.2125 0.8418 4.3828 1.1235 0.56753 2.6334 0.80978 4.5293 0.72461l0.89648-0.042969 0.47266-18.643c1.6501-0.31196 3.5106-0.52308 5.582-0.63672l5.6367-0.25586c0.35109 0.76609 0.61351 3.7724 0.78906 9.0215l0.31641 10.088 0.52539 0.46875 5.6894 0.083984c0.49153-0.73771 0.73633-3.8004 0.73633-9.1914 0-10.442-2.352-15.662-7.0566-15.662h-7.0566l-4.7402 1.4453-0.42187-0.12695c-0.03513 0.11338-0.07037 0.21171-0.10547 0.29688l-0.26367-0.25391v-2.5117l-0.8418-0.42578zm-27.746 3.7676h10.113v15.918c-2.1066 0.14186-3.1249 0.21094-3.0547 0.21094-6.0388 0-9.3053-0.19845-9.7969-0.5957v-14.854l2.7383-0.67969zm-125.62 0.81445 8.5977 0.66797c1.085 4.4236 1.6402 8.1926 1.668 11.309l-9.3477 0.54297-0.75195-0.16602-0.54102-0.79297v-5.1328l0.375-6.4277zm282.89 0.70898a2.8258 1.9018 27.417 0 1 1.75 0.45312 2.8258 1.9018 27.417 0 1 1.6074 2.9922 2.8258 1.9018 27.417 0 1-3.3965 0.36524 2.8258 1.9018 27.417 0 1-1.6074-2.9922 2.8258 1.9018 27.417 0 1 1.6465-0.81836zm-8.5938 4.3359c2.6589 4.5757 5.6112 5.6424 7.1445 6.2656 1.5333 0.62324 4.3555 0.44336 4.3555 0.44336l-0.75 1.0488s-2.611 1.4266-6.6074-0.19727c-3.9965-1.6236-4.9902-6.7402-4.9902-6.7402l0.84765-0.82031zm-81.686 5.4824 0.52539 5.3633h-5.6875c-0.07022 0-0.71844-0.11282-1.9473-0.33984v-3.5332c2.3523-0.76606 4.7219-1.2632 7.1094-1.4902z" fill="#fff" style="paint-order:normal"></path>
  </g>
</svg>
